<svg width="159" height="40" viewBox="0 0 159 40" fill="none" xmlns="http://www.w3.org/2000/svg">
<path d="M10.491 4.8329C11.0433 4.8329 11.491 5.28062 11.491 5.8329V10.671C11.491 11.2232 11.9387 11.671 12.491 11.671H15.2468C15.7991 11.671 16.2468 12.1187 16.2468 12.671V16.1208C16.2468 16.6731 15.7991 17.1208 15.2468 17.1208H12.491C11.9387 17.1208 11.491 17.5685 11.491 18.1208V31.0026C11.491 32.0308 11.6881 32.7678 12.0823 33.2134C12.4764 33.659 13.2305 33.8817 14.3445 33.8817C14.6905 33.8817 15.0199 33.8711 15.3325 33.8499C15.9579 33.8074 16.5296 34.2819 16.5296 34.9087V38.5918C16.5296 39.0314 16.2432 39.4228 15.8171 39.5309C14.5851 39.8436 13.323 40 12.0308 40C6.82091 40 4.16452 37.3693 4.0617 32.108V18.1208C4.0617 17.5685 3.61398 17.1208 3.0617 17.1208H0.999999C0.447715 17.1208 0 16.6731 0 16.1208V12.6709C0 12.1187 0.447715 11.671 1 11.671H3.0617C3.61398 11.671 4.0617 11.2232 4.0617 10.671V5.83291C4.0617 5.28062 4.50941 4.8329 5.0617 4.8329H10.491Z" fill="#9460E2"/>
<path d="M43.4567 25.4689C43.7441 26.4741 45.1866 26.4198 45.3976 25.3958L48.0617 12.4691C48.1575 12.0044 48.5667 11.671 49.0411 11.671H54.1114C54.7639 11.671 55.2416 12.2858 55.0803 12.9181L48.4954 38.733C48.3824 39.1759 47.9835 39.4859 47.5264 39.4859H42.8256C42.3843 39.4859 41.9952 39.1966 41.868 38.7741L37.7699 25.1604C37.4842 24.2114 36.1405 24.2114 35.8548 25.1604L31.7567 38.7741C31.6295 39.1966 31.2404 39.4859 30.7991 39.4859H26.124C25.6669 39.4859 25.268 39.1759 25.155 38.733L18.5701 12.9181C18.4088 12.2858 18.8865 11.671 19.539 11.671H24.6083C25.0832 11.671 25.4926 12.005 25.588 12.4702L28.2326 25.3745C28.4424 26.3984 29.8842 26.4547 30.1732 25.4503L33.9306 12.3944C34.0539 11.966 34.4458 11.671 34.8916 11.671H38.7574C39.2038 11.671 39.5962 11.9668 39.7189 12.396L43.4567 25.4689Z" fill="#9460E2"/>
<path d="M71.9023 40C67.8235 40 64.4987 38.7489 61.928 36.2468C59.3745 33.7446 58.0977 30.4113 58.0977 26.2468V25.527C58.0977 22.7335 58.6375 20.2399 59.7172 18.0463C60.7969 15.8355 62.3222 14.1388 64.2931 12.9563C66.2811 11.7566 68.5433 11.1568 71.0797 11.1568C74.8843 11.1568 77.8749 12.3565 80.0514 14.7558C82.2451 17.1551 83.3419 20.557 83.3419 24.9614V26.9949C83.3419 27.5471 82.8942 27.9949 82.3419 27.9949H66.7706C66.1663 27.9949 65.6938 28.5297 65.8502 29.1134C66.2004 30.4194 66.8467 31.5033 67.7892 32.365C69.006 33.4619 70.5398 34.0103 72.3907 34.0103C74.8067 34.0103 76.7768 33.2715 78.3013 31.7939C78.7497 31.3592 79.4836 31.329 79.8996 31.7948L82.2207 34.3938C82.5309 34.7411 82.5641 35.26 82.2678 35.6192C81.2137 36.8973 79.8665 37.9205 78.2262 38.6889C76.3239 39.563 74.2159 40 71.9023 40ZM71.054 17.1722C69.5801 17.1722 68.3805 17.6692 67.455 18.6632C66.741 19.4446 66.2282 20.4908 65.9166 21.8017C65.7762 22.3922 66.2484 22.9306 66.8554 22.9306H75.4499C75.7764 22.9306 76.0411 22.6659 76.0411 22.3393C76.0069 20.6941 75.5613 19.4259 74.7044 18.5347C73.8475 17.6264 72.6307 17.1722 71.054 17.1722Z" fill="#9460E2"/>
<path d="M95.4242 38.4859C95.4242 39.0381 94.9764 39.4859 94.4242 39.4859H88.9692C88.4169 39.4859 87.9692 39.0381 87.9692 38.4859V1C87.9692 0.447716 88.4169 0 88.9692 0H94.4242C94.9764 0 95.4242 0.447715 95.4242 1V38.4859Z" fill="#9460E2"/>
<path fill-rule="evenodd" clip-rule="evenodd" d="M113.824 40C121.556 40 127.824 33.732 127.824 26C127.824 18.268 121.556 12 113.824 12C106.092 12 99.8242 18.268 99.8242 26C99.8242 33.732 106.092 40 113.824 40ZM113.824 33.7778C118.12 33.7778 121.602 30.2955 121.602 26C121.602 21.7045 118.12 18.2222 113.824 18.2222C109.529 18.2222 106.046 21.7045 106.046 26C106.046 30.2955 109.529 33.7778 113.824 33.7778Z" fill="#728197"/>
<path fill-rule="evenodd" clip-rule="evenodd" d="M144.824 40C152.556 40 158.824 33.732 158.824 26C158.824 18.268 152.556 12 144.824 12C137.092 12 130.824 18.268 130.824 26C130.824 33.732 137.092 40 144.824 40ZM144.824 33.7778C149.12 33.7778 152.602 30.2955 152.602 26C152.602 21.7045 149.12 18.2222 144.824 18.2222C140.529 18.2222 137.046 21.7045 137.046 26C137.046 30.2955 140.529 33.7778 144.824 33.7778Z" fill="#728197"/>
</svg>
